<svg xmlns="http://www.w3.org/2000/svg" xmlns:xlink="http://www.w3.org/1999/xlink" id="Group_2558" data-name="Group 2558" width="80.798" height="80.798" viewBox="0 0 80.798 80.798"><defs><clipPath id="clip-path"><rect id="Rectangle_287" data-name="Rectangle 287" width="80.798" height="80.798" fill="none"></rect></clipPath></defs><g id="Group_2557" data-name="Group 2557" transform="translate(0 0)" clip-path="url(#clip-path)"><path id="Path_11485" data-name="Path 11485" d="M28.286,26.48a6.644,6.644,0,1,1,13.288-.017v2.514H45.4v-2.5a10.469,10.469,0,1,0-20.937,0v7.215H22.4V44.441a12.538,12.538,0,0,0,25.077,0V33.69H28.293Zm7.961,22.727v4.55H33.629V49.208a3.332,3.332,0,1,1,2.618,0Z" transform="translate(5.463 3.905)" fill="#2cc34a"></path><path id="Path_11486" data-name="Path 11486" d="M40.4,80.8a1.306,1.306,0,0,1-1.3-1.306v-5.63a1.246,1.246,0,0,0-1.148-1.24A32.2,32.2,0,0,1,8.175,42.853a1.244,1.244,0,0,0-1.24-1.148H1.306a1.306,1.306,0,1,1,0-2.612H6.933a1.244,1.244,0,0,0,1.24-1.148A32.2,32.2,0,0,1,37.942,8.176a1.246,1.246,0,0,0,1.148-1.24V1.306a1.306,1.306,0,1,1,2.612,0V6.935a1.245,1.245,0,0,0,1.148,1.24A32.209,32.209,0,0,1,72.622,37.946a1.243,1.243,0,0,0,1.24,1.148h5.631a1.305,1.305,0,0,1,0,2.611H73.863a1.243,1.243,0,0,0-1.24,1.148A32.2,32.2,0,0,1,42.852,72.622a1.245,1.245,0,0,0-1.148,1.24v5.63A1.309,1.309,0,0,1,40.4,80.8M10.768,41.706a1.243,1.243,0,0,0-1.239,1.352,30.984,30.984,0,0,0,28.21,28.21,1.034,1.034,0,0,0,.108,0,1.246,1.246,0,0,0,1.244-1.244V66.323a1.306,1.306,0,1,1,2.612,0V70.03a1.244,1.244,0,0,0,1.244,1.244,1.05,1.05,0,0,0,.108,0A30.979,30.979,0,0,0,71.27,43.06a1.243,1.243,0,0,0-1.239-1.352H66.323a1.306,1.306,0,1,1,0-2.612h3.708a1.243,1.243,0,0,0,1.239-1.352A30.979,30.979,0,0,0,43.056,9.532a1.05,1.05,0,0,0-.108,0A1.244,1.244,0,0,0,41.7,10.771v3.708a1.306,1.306,0,0,1-2.612,0V10.771a1.246,1.246,0,0,0-1.244-1.244,1.034,1.034,0,0,0-.108,0,30.985,30.985,0,0,0-28.21,28.21,1.243,1.243,0,0,0,1.239,1.352h3.707a1.306,1.306,0,1,1,0,2.612Z" transform="translate(0 0)" fill="#858585"></path></g></svg>